Coordinates
version=1
nRows=17
nColumns=40
inDegrees=yes

Units are S.I. units (second, meters, Newtons, ...)
If the header above contains a line with 'inDegrees', this indicates whether rotational values are in degrees (yes) or radians (no).

endheader
time	pelvis_tilt	pelvis_list	pelvis_rotation	pelvis_tx	pelvis_ty	pelvis_tz	hip_flexion_r	hip_adduction_r	hip_rotation_r	knee_angle_r	knee_angle_r_beta	ankle_angle_r	subtalar_angle_r	mtp_angle_r	hip_flexion_l	hip_adduction_l	hip_rotation_l	knee_angle_l	knee_angle_l_beta	ankle_angle_l	subtalar_angle_l	mtp_angle_l	lumbar_extension	lumbar_bending	lumbar_rotation	arm_flex_r	arm_add_r	arm_rot_r	elbow_flex_r	pro_sup_r	wrist_flex_r	wrist_dev_r	arm_flex_l	arm_add_l	arm_rot_l	elbow_flex_l	pro_sup_l	wrist_flex_l	wrist_dev_l
     11.78333333	      5.71195302	     -0.87599093	     -1.48802469	     -0.40067963	      1.19743400	      0.02369247	     28.47164481	     -1.82526922	     -0.59950800	     38.40165887	      0.67023539	     -6.65628573	    -23.58906280	      0.00000000	     69.01564762	      0.51521388	     13.34974347	    110.92473281	      1.93600181	     12.31758413	    -25.07989974	      0.00000000	    -67.34778396	      0.56267350	      5.31108956	     79.71373215	     -9.07486887	      6.76000406	     44.78923739	      9.72019936	      0.00000000	      0.00000000	     89.87661568	     -0.50983849	     31.10716676	     23.84509935	     83.93151620	      0.00000000	      0.00000000
     11.79166667	      5.70497403	     -0.84878337	     -1.55525027	     -0.40082315	      1.19740508	      0.02351170	     28.18270908	     -1.91341394	     -0.65958445	     39.17368544	      0.68370979	     -6.50044050	    -23.35532318	      0.00000000	     69.79690647	      0.59869337	     13.34374619	    110.48960715	      1.92840743	     12.71577099	    -25.01114008	      0.00000000	    -67.35146659	      0.42500974	      5.30946350	     79.67303291	     -9.11667148	      6.54862774	     44.89085991	     10.69309530	      0.00000000	      0.00000000	     89.87723372	     -0.42304575	     31.11482638	     23.83890944	     82.81147972	      0.00000000	      0.00000000
     11.80000000	      5.80755412	     -0.97019862	     -1.58429012	     -0.40098926	      1.19798118	      0.02339337	     27.79127749	     -1.82244103	     -0.67877455	     39.96311720	      0.69748797	     -6.48414881	    -23.43513172	      0.00000000	     70.29903518	      0.65834752	     13.48378409	    109.74105092	      1.91534266	     12.94798687	    -25.15259261	      0.00000000	    -67.51989942	      0.40390751	      5.42757368	     79.67680188	     -9.15030104	      6.52281166	     44.93696508	     10.63261436	      0.00000000	      0.00000000	     89.87961625	     -0.40705524	     31.08564427	     23.98878319	     82.88308861	      0.00000000	      0.00000000
     11.80833333	      5.72339301	     -0.96086183	     -1.56142025	     -0.40121601	      1.19760770	      0.02310810	     27.99511054	     -1.95365817	     -0.82808191	     41.49415938	      0.72420970	     -6.22381128	    -23.64503834	      0.00000000	     70.92229037	      0.82506807	     13.48654557	    109.02681347	      1.90287687	     13.32785503	    -25.38054129	      0.00000000	    -67.42315506	      0.36445380	      5.44108147	     79.61129935	     -9.18121170	      6.25674060	     45.04046378	     11.31862192	      0.00000000	      0.00000000	     89.88006392	     -0.30355965	     31.15900924	     23.97413889	     82.17780047	      0.00000000	      0.00000000
     11.81666667	      5.51525200	     -0.91150187	     -1.54360541	     -0.40160132	      1.19730677	      0.02297550	     28.45635408	     -2.01491807	     -0.67142061	     43.14299420	      0.75298730	     -6.10386877	    -24.31967147	      0.00000000	     71.47615449	      0.93630661	     13.43189011	    107.93436016	      1.88380996	     13.34243544	    -25.86235820	      0.00000000	    -67.24312236	      0.29630952	      5.38792759	     79.50645415	     -9.23718195	      6.17479076	     45.22651848	     10.82622501	      0.00000000	      0.00000000	     89.87985360	     -0.31904779	     31.07623051	     24.17234003	     82.81355280	      0.00000000	      0.00000000
     11.82500000	      5.63627265	     -1.13533949	     -1.57604004	     -0.40182254	      1.19775007	      0.02296049	     28.54263250	     -1.82934919	     -0.67826972	     44.75099152	      0.78105215	     -6.18212625	    -24.46995360	      0.00000000	     71.50314748	      0.84214968	     13.61483055	    106.69290458	      1.86214247	     13.50440119	    -26.04773912	      0.00000000	    -67.42137779	      0.34013941	      5.59604955	     79.56875794	     -9.26051081	      6.15538245	     45.22356343	     10.72455056	      0.00000000	      0.00000000	     89.88040883	     -0.32682518	     30.93009044	     24.35060800	     82.92656972	      0.00000000	      0.00000000
     11.83333333	      5.75477038	     -1.37962190	     -1.56239093	     -0.40203646	      1.19816731	      0.02293202	     28.74278684	     -1.62773596	     -0.67421155	     46.53248463	      0.81214507	     -6.19006166	    -24.67374215	      0.00000000	     71.35642996	      0.71193568	     13.79280892	    105.31070893	      1.83801861	     13.60310489	    -26.22049529	      0.00000000	    -67.59252672	      0.43244131	      5.81994708	     79.61983393	     -9.29296173	      6.12264355	     45.22736744	     10.67262251	      0.00000000	      0.00000000	     89.88121114	     -0.31466355	     30.80843404	     24.53619558	     82.97744620	      0.00000000	      0.00000000
     11.84166667	      5.40217317	     -1.19970583	     -1.71342421	     -0.40262158	      1.19763145	      0.02288782	     29.75736300	     -1.69109144	     -0.19080389	     48.73017324	      0.85050197	     -6.28785575	    -25.68408688	      0.00000000	     71.56818031	      0.62296382	     13.43640801	    103.72004903	      1.81025636	     13.71539403	    -27.04386001	      0.00000000	    -67.25825240	      0.20067562	      5.69743294	     79.61022343	     -9.27430881	      6.04569349	     45.21837414	     10.27762272	      0.00000000	      0.00000000	     89.88316126	     -0.31208278	     30.66767705	     24.59901913	     83.44406370	      0.00000000	      0.00000000
     11.85000000	      5.56469056	     -1.53191668	     -1.67545333	     -0.40277228	      1.19807706	      0.02285258	     30.09622175	     -1.44157877	     -0.27275539	     50.75403545	      0.88582503	     -6.24714751	    -25.89913005	      0.00000000	     71.06808981	      0.38453799	     13.60512764	    101.94393011	      1.77925723	     13.86100150	    -27.09227461	      0.00000000	    -67.46963415	      0.38345634	      5.97367945	     79.69615885	     -9.26830946	      6.02743000	     45.16105443	     10.19788846	      0.00000000	      0.00000000	     89.88410505	     -0.33393886	     30.56258087	     24.74248993	     83.52715252	      0.00000000	      0.00000000
     11.85833333	      5.58344072	     -1.71410872	     -1.67219633	     -0.40302616	      1.19825371	      0.02285416	     30.72670377	     -1.28728723	     -0.19793514	     52.95948123	      0.92431732	     -6.14487517	    -26.22628105	      0.00000000	     70.51989321	      0.16577551	     13.63671620	    100.08350413	      1.74678667	     14.14862662	    -27.40533731	      0.00000000	    -67.52921463	      0.46886956	      6.11813173	     79.76836365	     -9.23836989	      5.99742775	     45.09679549	     10.09916969	      0.00000000	      0.00000000	     89.88635546	     -0.35591831	     30.49661502	     24.86167069	     83.62671325	      0.00000000	      0.00000000
     11.86666667	      5.57918355	     -1.74654108	     -1.69571551	     -0.40332077	      1.19845663	      0.02261592	     31.49372863	     -1.29330087	     -0.03123603	     55.30453401	      0.96524621	     -6.06213969	    -26.54484922	      0.00000000	     69.81727104	      0.00251734	     13.41860358	     98.15047961	      1.71304903	     14.29151322	    -27.81291407	      0.00000000	    -67.56978098	      0.48550960	      6.15033166	     79.84455645	     -9.22158656	      5.94586238	     45.04365289	      9.99322327	      0.00000000	      0.00000000	     89.88786721	     -0.36915244	     30.43716959	     24.98222103	     83.73260522	      0.00000000	      0.00000000
     11.87500000	      5.75698466	     -2.24670722	     -1.64125788	     -0.40340666	      1.19905001	      0.02287776	     31.97045445	     -0.89048883	     -0.25242734	     57.48506547	      1.00330366	     -5.98791408	    -26.60227806	      0.00000000	     68.83092549	     -0.43222505	     13.76365798	     95.83476265	      1.67263215	     14.19630512	    -27.85540287	      0.00000000	    -67.81674763	      0.75501705	      6.58505845	     79.93112957	     -9.21791513	      5.92267278	     45.04559617	      9.97931606	      0.00000000	      0.00000000	     89.88831113	     -0.38982254	     30.36498234	     25.12568912	     83.73900134	      0.00000000	      0.00000000
     11.88333333	      5.89175163	     -2.75260552	     -1.53955005	     -0.40353462	      1.19965605	      0.02296081	     32.53706391	     -0.49755525	     -0.47838484	     59.67903155	      1.04159559	     -5.86575489	    -26.69024967	      0.00000000	     67.72797745	     -0.89757028	     14.01916624	     93.51329019	      1.63211481	     14.20836182	    -27.94017422	      0.00000000	    -68.02693672	      1.10322637	      6.98757804	     80.03854056	     -9.15545345	      5.90057410	     45.10782222	      9.95008418	      0.00000000	      0.00000000	     89.89063566	     -0.42920321	     30.29010522	     25.18343448	     83.74224807	      0.00000000	      0.00000000
     11.89166667	      5.84392209	     -2.52241764	     -1.55386761	     -0.40363607	      1.19933642	      0.02264844	     33.68032008	     -0.80548228	     -0.25270327	     62.45862768	      1.09010870	     -5.49662950	    -27.16365893	      0.00000000	     66.65206934	     -0.94413154	     13.58139393	     91.10707340	      1.59011840	     14.18259750	    -28.48058487	      0.00000000	    -67.94014799	      1.01487700	      6.81465576	     80.06536469	     -9.18425706	      5.94158701	     44.90260274	      9.89921582	      0.00000000	      0.00000000	     89.89060355	     -0.35083270	     30.21332196	     25.07866279	     83.82171563	      0.00000000	      0.00000000
     11.90000000	      5.99218493	     -2.78054889	     -1.49869459	     -0.40352488	      1.19968284	      0.02263790	     34.46789914	     -0.66128619	     -0.34578227	     64.93415229	      1.13331475	     -5.29220679	    -27.22130298	      0.00000000	     65.26440603	     -1.29501115	     13.65962788	     88.70786539	      1.54824432	     14.03431038	    -28.76613191	      0.00000000	    -68.11212377	      1.20466232	      7.03631455	     80.09884687	     -9.17225077	      6.02420095	     44.85737985	      9.90876771	      0.00000000	      0.00000000	     89.89001537	     -0.30398560	     30.10590960	     25.05406274	     83.84855347	      0.00000000	      0.00000000
     11.90833333	      6.08263395	     -2.75717285	     -1.46159638	     -0.40360258	      1.20004774	      0.02218089	     35.43284462	     -0.85473440	     -0.29882825	     67.49124464	      1.17794444	     -5.00837113	    -27.07983304	      0.00000000	     63.74225872	     -1.46026585	     13.38990246	     86.02399802	      1.50140200	     13.67375506	    -29.42798391	      0.00000000	    -68.23701070	      1.30237967	      7.01918842	     80.22982920	     -9.21826536	      6.16424680	     44.83127056	      9.91536260	      0.00000000	      0.00000000	     89.89095181	     -0.29680250	     29.90939099	     25.02022360	     83.88760820	      0.00000000	      0.00000000
     11.91666667	      6.30342137	     -3.26285526	     -1.36136267	     -0.40329433	      1.20036606	      0.02232369	     36.20891614	     -0.51149693	     -0.60043736	     69.94425248	      1.22075750	     -4.73940685	    -27.07957164	      0.00000000	     62.10535103	     -2.01646703	     13.62148854	     83.32287294	      1.45425848	     13.28158857	    -29.49417679	      0.00000000	    -68.46211071	      1.64574975	      7.53276684	     80.26258642	     -9.28364879	      6.18709825	     44.77257673	      9.91761010	      0.00000000	      0.00000000	     89.88912640	     -0.21094031	     29.91102257	     24.92679020	     83.91451549	      0.00000000	      0.00000000
